<svg xmlns="http://www.w3.org/2000/svg" viewBox="0 0 23.77 21.07">
	<path
		d="M12,22.53c-5.07-.09-7.1-2.32-7.69-3.15l-3,.34a.51.51,0,0,1-.45-.2A.46.46,0,0,1,.78,19l.74-1.92-1-.19a.49.49,0,0,1-.37-.31.49.49,0,0,1,.07-.49l1.25-1.61L.72,12.91a.48.48,0,0,1,0-.49.47.47,0,0,1,.45-.22l2,.15c.31-1.93,2-4.14,2.86-5.11L4.36,6.45A1.92,1.92,0,0,1,3.35,5,3.13,3.13,0,0,1,4.77,2.47a3.08,3.08,0,0,1,2.67-1A2.59,2.59,0,0,1,9.07,3a.49.49,0,0,1,0,.11L9.5,5.37A7.54,7.54,0,0,1,12,5.16a7.54,7.54,0,0,1,2.5.21l.39-2.31a.49.49,0,0,1,0-.11,2.55,2.55,0,0,1,1.63-1.43,3.08,3.08,0,0,1,2.67,1A3.13,3.13,0,0,1,20.65,5a1.9,1.9,0,0,1-1,1.4L18,7.24c.84,1,2.55,3.18,2.86,5.11l1.95-.15a.51.51,0,0,1,.45.22.48.48,0,0,1,0,.49l-.75,1.61,1.25,1.61a.5.5,0,0,1-.3.8l-1,.19L23.22,19a.46.46,0,0,1-.07.48.49.49,0,0,1-.45.2l-3-.34C19.09,20.21,17.06,22.44,12,22.53ZM4.58,18.35a.49.49,0,0,1,.44.27c.06.11,1.55,2.81,7,2.91,5.42-.1,6.91-2.8,7-2.91a.51.51,0,0,1,.5-.27l2.51.28-.66-1.71a.48.48,0,0,1,0-.42.48.48,0,0,1,.34-.25l.79-.15-.94-1.2a.49.49,0,0,1-.06-.52L22,13.26l-1.59.12a.5.5,0,0,1-.37-.12.52.52,0,0,1-.16-.37c0-2.22-3.06-5.44-3.09-5.48A.48.48,0,0,1,16.67,7,.51.51,0,0,1,17,6.62l2.26-1.07h0a1,1,0,0,0,.45-.63c.05-.45-.34-1-1.08-1.69a2.32,2.32,0,0,0-1.8-.74,1.54,1.54,0,0,0-.91.81L15.4,6.08a.51.51,0,0,1-.23.34.49.49,0,0,1-.41.06,6.76,6.76,0,0,0-2.68-.32h-.16a6.76,6.76,0,0,0-2.68.32.49.49,0,0,1-.41-.06.51.51,0,0,1-.23-.34L8.13,3.3a1.54,1.54,0,0,0-.92-.81,2.3,2.3,0,0,0-1.79.74c-.74.64-1.13,1.24-1.08,1.69a.91.91,0,0,0,.47.63L7.05,6.62A.51.51,0,0,1,7.33,7a.48.48,0,0,1-.13.43s-3,3.26-3.09,5.48a.52.52,0,0,1-.16.37.5.5,0,0,1-.37.12L2,13.26l.52,1.12a.49.49,0,0,1-.06.52l-.94,1.2.79.15a.48.48,0,0,1,.34.25.48.48,0,0,1,0,.42L2,18.63l2.51-.28Z"
		transform="translate(-0.11 -1.46)" fill="currentColor" stroke="currentColor"/>
	<ellipse cx="9.09" cy="11.87" rx="1.19" ry="1.89" fill="currentColor" />
	<ellipse cx="15.03" cy="11.87" rx="1.19" ry="1.89" fill="currentColor"/>
	<path
		d="M12.57,14.5l-.33.24-.32-.24s-.4-.46-.33.22a.79.79,0,0,0,.65.74.8.8,0,0,0,.66-.74C13,14,12.57,14.5,12.57,14.5Z"
		transform="translate(-0.11 -1.46)" fill="currentColor"/>
</svg>