<svg xmlns="http://www.w3.org/2000/svg" viewBox="0 0 1088.88 861.01" fill="currentColor"><path d="M839.68,813.1h0l-18-5.16s-30.21-9.32-126.4-14.79c9.61,21.43,17.07,42.17,21.62,61.51,0,0,41.34,18.67,96-8,0,0,25.34-16,28-32ZM265.9,807.94l-15.72,3.9L248,814.66c2.66,16,28,32,28,32,54.66,26.67,96,8,96,8,4.59-19.51,12.14-40.44,21.86-62.06C292.69,798,265.9,807.94,265.9,807.94ZM288,643a155.09,155.09,0,0,1-11.58-25.37,167.83,167.83,0,0,1-9.32-56.2c0-29.41,6.86-60.55,19.56-91.06l-4-14.86a12.28,12.28,0,0,1-.22-5.46l1.47-8-.12-1L282,426.14l-5.22-3.68c-25.05,44.27-39.63,92.57-39.63,138.92a199.75,199.75,0,0,0,8.18,57.5c-15.64.71-30.28,1.48-43.8,2.3V599.69h35.62l-20.66-24.44,15.11-.89-21.74-24.22h12l-23.92-34.89-23.92,34.89h12l-21.74,24.22,15.11.89L158.6,599.69h35.78v21.93c-28.2,1.79-51.12,3.81-67.56,6V610.85h27.63l-16-19,11.72-.69-16.86-18.79h9.28l-18.56-27-18.55,27h9.28L97.87,591.2l11.72.69-16,19h27.75v17.53c-15.36,2.29-23.7,4.73-23.7,7.28,0,7,63,13.27,161.72,17.41l4.95.2h30.13Q291,648.2,288,643ZM268.51,721q.12-27.53.25-55H171.7q0,31.07,0,62.15-5.52,5.89-11,12,5.51,5,11,9.87,0,30.42,0,60.84,16.58-3.06,33.18-5.86.06-27.39.13-54.79,15-1.57,30-3-.09,26.49-.19,53,16.69-2.55,33.4-4.84.13-26.93.25-53.86,5.76-5.55,11.52-11Q274.22,725.78,268.51,721Zm-33.45-3.09q-15,.95-30.08,2l.06-22.6q15-.56,30.1-1.08Q235.1,707.07,235.06,717.92Zm169.52-51.7H363.27q-8.31,13.17-16.64,26.67-8.19-13.15-16.36-26.66H288.86q18.45,31.59,36.87,61Q307,758.76,288.22,792.62q20.67-2.62,41.38-4.82,8.34-14.4,16.66-28.35,8.19,12.69,16.38,25.1,20.67-1.86,41.39-3.31-18.46-27.45-36.87-56C379.64,705,392.12,685.39,404.58,666.22ZM559.7,720.14q-21.57-.06-43.14.1l0,24.21c3.05,0,6.1-.06,9.15-.09v2.54c-.08,3-2.44,4.49-7.11,4.54q-6.32.07-12.65.17-7.4.12-7.18-5.21,0-25,.1-50-.21-5.26,7.19-5.3l12.62-.05q7,0,7.07,4.45v7.47q17-.08,34,0V687.82q-1.05-21.69-31.38-21.84h-32q-31.36.12-31.44,23.5,0,12.18-.07,24.37-5.67,4.39-11.33,8.84,5.64,4.18,11.27,8.34,0,11.69-.07,23.35c-.06,15.61,10.41,22.94,31.41,22.47q16.06-.4,32.12-.56c21-.29,31.51-7.87,31.5-23.23Q559.71,736.61,559.7,720.14ZM688.08,724q-5.77-4.72-11.54-9.38L676.33,666H579.26l.06,47.4-11.08,8.25,11.1,8.39.06,46.4q16.77.26,33.55.77,0-21.91-.11-43.85,15.1.25,30.21.63.08,22.2.16,44.39,16.81.76,33.63,1.81-.11-23.79-.22-47.57Q682.35,728.3,688.08,724Zm-75.3-14.84q0-9,0-18.09,15.07.11,30.16.27L643,709.5Q627.87,709.28,612.78,709.13Zm210.24,23q-5.46-5.08-10.9-10-.15-27.95-.28-55.89H778.63q.17,31.32.34,62.64c-13.4-21.64-26.81-42.46-40.21-62.65H705.34q.13,25.18.26,50.36-5.62,4.27-11.25,8.49,5.67,4.63,11.34,9.35l.24,47.76q16.64,1.27,33.27,2.81-.18-31.07-.34-62.12c13.75,21.31,27.51,43.35,41.25,66.32q16.2,1.81,32.36,3.9-.13-26.13-.26-52.25Q817.61,736.55,823,732.17Zm59.84-35,12.59.47q7,.27,7.07,6c0,3.18,0,6.35,0,9.53q16.94,1,33.84,2V695.08Q935.36,666,905,666H873q-31.37.3-31.25,27.55l.12,28.55q-5.61,4.7-11.21,9.27,5.65,5.37,11.3,10.87l.12,27.37c.07,18.19,10.54,28.78,31.35,32.27q15.91,2.52,31.79,5.31c20.76,3.61,31.11-4.62,31.12-25.17V738.13q-21.43-2-42.89-3.77,0,15.24.07,30.5l9.08,1.1c0,1.08,0,2.16,0,3.24q-.09,5.7-7,4.76l-12.55-1.62q-7.35-.93-7.16-7.45-.1-30.76-.19-61.54C875.56,699,878,697,882.86,697.15ZM483.4,524.71a5.09,5.09,0,0,0-2.13-3.48l-1.44-1.05L420.1,476.63a5.36,5.36,0,0,0-8.51,4.59c.35,7.64.3,11-3.16,17.85a5.87,5.87,0,0,1-.47.75c-13.9,18.82-6.82,38.55-4,44.76a5.37,5.37,0,0,0,2.92,2.78A189.44,189.44,0,0,0,449,558.48l1.63.21.52.09c15.46,3.61,14.69.66,14.22-1.08a9.34,9.34,0,0,1-.65-2.34c-.29-4.92.1-14.71,13-23.94C483.93,527,483.66,527,483.4,524.71Zm-3-58.33c-5.53-9.58-13.71-15.21-18.27-12.58s-3.77,12.54,1.76,22.11,13.71,15.21,18.27,12.58S485.92,476,480.39,466.38ZM673,499.9a6,6,0,0,1-.47-.76c-3.46-6.84-3.51-10.2-3.16-17.85a5.36,5.36,0,0,0-8.51-4.58l-54.7,39.88-6.47,4.72a5.07,5.07,0,0,0-2.13,3.48c-.26,2.24-.53,2.3,5.66,6.71,12.92,9.23,13.31,19,13,23.93a9.3,9.3,0,0,1-.65,2.35c-.47,1.73-1.24,4.69,14.22,1.08a4.71,4.71,0,0,1,.52-.09c3-.36,5.88-.82,8.72-1.34a193.31,193.31,0,0,0,35-10,5.41,5.41,0,0,0,2.92-2.78C679.81,538.45,686.89,518.71,673,499.9Zm-54.16-46c-4.56-2.63-12.74,3-18.27,12.58s-6.32,19.47-1.76,22.11,12.74-3,18.27-12.58S623.39,456.51,618.83,453.88ZM592.27,613.51l-.36-.25L568,596.83l-21.9-15.06a4.54,4.54,0,0,0-5.23.08L521.52,596l0,0-23.44,17.17h0L497,614a9.4,9.4,0,0,0-1.47,13.84c.12.14.25.27.38.4a7.6,7.6,0,0,0,10.55.06l16-15.2,18.52-17.58a3.85,3.85,0,0,1,5.18-.12l20.49,17.72h0l15.17,13.12a8.56,8.56,0,0,0,10.26.73l.05,0a8.11,8.11,0,0,0,.17-13.47ZM554.19,210.76c-2.26-2.07-10.69-9.48-15.73-10.19-5.11.72-13.72,8.34-15.83,10.26l-.48.45a43.91,43.91,0,0,1,8.72,1.82l.21.07c4.07,1.21,7.38,2.56,7.38,2.56s2.14-.87,5.08-1.84h0a51.84,51.84,0,0,1,11.21-2.61ZM540.34,362.28a15.39,15.39,0,0,0-2.15-1.26,14.59,14.59,0,0,0-2.13,1.25c-8.23,5.63-21.63,22.65-21.63,22.65C525.51,387.56,532.64,388,536,388c1.48,0,2.22-.08,2.22-.08s.73.08,2.21.08c3.34,0,10.47-.41,21.54-3.05C561.94,384.92,548.56,367.92,540.34,362.28Zm-36.11-20c-10.82,2.49-23.91,27.4-23.91,27.4,5.54,10.41,21.64,13.13,21.64,13.13,8.81-13.13,25.67-27.4,25.67-27.4Zm-30.44-8.49a21.61,21.61,0,0,0-6.89-1.44c-3.72,0-5.5,1.94-6.55,5.07-2.69,13.1,11.2,24.82,11.2,24.82C475.81,350.2,489,339.45,489,339.45S482.53,336.83,473.79,333.81Zm25.35-31.69a19.36,19.36,0,0,0-4.55,2c-4.78,2.74-9.53,7.32-12.76,10.78-2.48,2.65-4.05,4.65-4.05,4.65,11.47,1.82,24.73,7.78,24.73,7.78l23.16-17.49C516.45,304.35,499.14,302.12,499.14,302.12ZM528.68,223l-.94-.34a37.45,37.45,0,0,0-12-2.47,15.9,15.9,0,0,0-3.7.4,9.85,9.85,0,0,0-3.32,1.47,1,1,0,0,0-.21.21c-.8.95-6,7.57-2.73,11.9a1.13,1.13,0,0,0,.89.42,1.17,1.17,0,0,0,.65-.19c2.93-1.86,13.07-8,21.15-9.52A1,1,0,0,0,528.68,223Zm43.47,119.59-23.13,13s16.66,14.09,25.37,27.07c0,0,15.92-2.68,21.39-13C595.78,369.61,582.85,345,572.15,342.54Zm47.05-5.1a8.7,8.7,0,0,0-1.85-3.3l-.9-.76a6.66,6.66,0,0,0-3.81-1,21.61,21.61,0,0,0-6.89,1.44c-8.74,3-15.24,5.64-15.24,5.64S603.73,350.2,608,362.26C608,362.26,621.89,350.54,619.2,337.44Zm-24.69-22.61c-3.23-3.46-8-8-12.72-10.74a19.36,19.36,0,0,0-4.55-2s-17.32,2.23-26.53,7.69l23.15,17.49s13.27-6,24.73-7.78C598.59,319.52,597,317.5,594.51,314.83Zm22.37-19.05a46.67,46.67,0,0,0-1.57-5.61,28.84,28.84,0,0,0-6.18-1c-.62,0-1.24-.05-1.86-.05a44.31,44.31,0,0,0-7.76.73,60.59,60.59,0,0,0-12.13,3.58c-1.14.46-1.78.77-1.78.77l2.08,1.75,14,11.82,13.66,11.54C619.35,311.56,618.22,301.8,616.88,295.78Zm-17.51-36.66s-1.8-.13-4.78-.13c-2.19,0-5,.07-8.27.32a88.55,88.55,0,0,0-22.19,4.34,55.67,55.67,0,0,0-7.2,3.08c-.76.39-1.51.8-2.24,1.23l23.39,16.1,7-.48A67.21,67.21,0,0,1,602,279.43c.34-1.16.71-2.59,1-4.16C604.14,269.61,604.42,262.18,599.37,259.12Zm-31.49-36.89a1.31,1.31,0,0,0-.24-.23,9.48,9.48,0,0,0-3.19-1.42,15.3,15.3,0,0,0-3.81-.44,38.75,38.75,0,0,0-12.58,2.67,1.15,1.15,0,0,0-.43.26,1.08,1.08,0,0,0,.65,1.84c7.93,1.59,17.68,7.49,20.68,9.39a1.42,1.42,0,0,0,.72.2,1.23,1.23,0,0,0,1-.46C573.83,229.72,568.7,223.21,567.88,222.23Zm8.53,28.16c-15.08-9.52-38.22-15.5-38.22-15.5s-22.78,5.89-37.86,15.27l-1,.61s4.67.81,10.79,2.15c3.29.72,7,1.6,10.64,2.59,8.19,2.24,15.94,5.05,17.39,8,1.79-3.57,13.12-7,23.08-9.41,2.08-.5,4.11-1,6-1.37,5.61-1.2,9.77-1.92,9.77-1.92Zm-24.47,31a87.29,87.29,0,0,0-9.25-4.62c-2.8-1.17-4.5-1.68-4.5-1.68s-1.7.51-4.5,1.69a84.43,84.43,0,0,0-9.63,4.84,88,88,0,0,0-14.59,10.61s24.45,5.08,28.35,10.75a3.26,3.26,0,0,1,.37.68,3.26,3.26,0,0,1,.37-.68c3.9-5.67,28.35-10.75,28.35-10.75A89.39,89.39,0,0,0,551.94,281.42Zm-63.32,11.87a61.33,61.33,0,0,0-10.3-3.13,45.26,45.26,0,0,0-9.21-1h-.05a29.73,29.73,0,0,0-8,1,49.36,49.36,0,0,0-1.76,6.49c-1.24,6.06-2.08,15.27,1.76,22.67l13.66-11.55L488.67,296l2.1-1.77S490,293.84,488.62,293.29Zm32.86-26.46h0c-1.27-.67-2.56-1.27-3.88-1.82-9.85-4.16-20.86-5.51-28.62-5.89-2-.1-3.84-.13-5.35-.13-3,0-4.78.13-4.78.13-5.12,3.11-4.76,10.72-3.6,16.42.31,1.56.68,3,1,4.11.51,1.73.94,2.83.94,2.83l13.67.94,9.26.64L523.52,268C522.85,267.56,522.17,267.19,521.48,266.83Zm21.63,51.89-4.18-3.05-.74-.54-.74.54-4.19,3.06-19.78,14.44s20.06,8.14,24.71,14.74c4.64-6.6,24.7-14.74,24.7-14.74ZM729.87,400.3l0,.23.23-.11.11-.06ZM727,404.75a2.27,2.27,0,0,1-.94-.2l-.66-.29a2.23,2.23,0,0,0,.84.78c.23-.07.47-.12.7-.17a1.28,1.28,0,0,0,.37-.14Zm-5.11-3.26-.12-.06a39.08,39.08,0,0,0-14.24-5.08c-19.85-2.93-36.58,10.45-37.51,11.21,15.33-13.91,29.56-15.41,39.65-13.68A40.93,40.93,0,0,1,720,397.09a35.92,35.92,0,0,1-2-5.06c0-.54.44-5,.81-8.74.14-1.46.27-2.79.36-3.7a2.31,2.31,0,0,0-.81-2l-8.22-7a2.34,2.34,0,0,0-1.52-.56H688.06a2.34,2.34,0,0,0-2,1.14l-5.42,9.14a2.39,2.39,0,0,1-1,.94L675,383.31a2.31,2.31,0,0,0-1.2,1.26L669,396.49a1.77,1.77,0,0,1-.15.31L662,408.5a2.34,2.34,0,0,0,.84,3.21l7.76,4.49a2.4,2.4,0,0,1,1,1.26l4.93,14.28,1.85,5.38a2.4,2.4,0,0,0,.44.76l9.5,11a2.32,2.32,0,0,1,.57,1.53v.19a2.29,2.29,0,0,0,1.5,2.19c3.18-36.27,22-47.39,31.75-50.73C722.12,401.91,722,401.71,721.92,401.49Zm81.16,3.56-9.4-9a2.37,2.37,0,0,1-.57-.83l-6.93-17.56a2.28,2.28,0,0,0-.55-.82l-8.45-8.18a2.32,2.32,0,0,1-.71-1.68v-4.94a2.34,2.34,0,0,0-1.82-2.28L749.43,354h0a24.62,24.62,0,0,0-5.19-.62h-.4a25.49,25.49,0,0,0-11,2.53l-1.48.71-4.22,2a2.42,2.42,0,0,0-.88.74,29.94,29.94,0,0,0-4.6,8.77c-1.73,6,1.06,8.48,1.06,8.48l.92,1.08,7.34,8.55a2.36,2.36,0,0,1,.56,1.69l-.48,7c0,.11,0,.21,0,.32l-.1.49a64.4,64.4,0,0,1,11.07-4.35,61.24,61.24,0,0,1,17-2.5,56.26,56.26,0,0,1,21.55,4.24,67.75,67.75,0,0,1,19.76,12.67,68.74,68.74,0,0,0-17.56-9.43,65.34,65.34,0,0,0-21.23-4.11,59,59,0,0,0-17.16,2.18,64.68,64.68,0,0,0-14.12,5.84c11.76,2.31,40.16,13.52,48.05,67.82-.65-3.4-11.66-57.93-51.41-63a1.7,1.7,0,0,1-.54-.17c-26.75,6.35-34,38-35.63,47.84a2.24,2.24,0,0,0,.68.1,2.28,2.28,0,0,0,1.93-1.06,2.27,2.27,0,0,1,.85-.78L705.62,445a2.44,2.44,0,0,1,.75-.24l21.77-3.29a2,2,0,0,1,.34,0,2.42,2.42,0,0,1,.47.05l21,4.27a2.31,2.31,0,0,1,.84.35l21.63,14.53a2.3,2.3,0,0,1,.83,1l3.17,7.21a2.27,2.27,0,0,0,2.13,1.4,2.31,2.31,0,0,0,2.27-1.73l2.66-9.86,1.57-5.82a2.29,2.29,0,0,0,.05-1l-1.69-9.11a2.18,2.18,0,0,1,0-.72L785,428.77h0l.89-7.21a2.33,2.33,0,0,1,1-1.63l7.37-5.2,8.61-6.07A2.33,2.33,0,0,0,803.08,405.05Zm-76.05-.3a2.27,2.27,0,0,1-.94-.2l-.66-.29a2.23,2.23,0,0,0,.84.78c.23-.07.47-.12.7-.17a1.28,1.28,0,0,0,.37-.14Zm2.84-4.45,0,.23.23-.11.11-.06ZM727,404.75a2.27,2.27,0,0,1-.94-.2l-.66-.29a2.23,2.23,0,0,0,.84.78c.23-.07.47-.12.7-.17a1.28,1.28,0,0,0,.37-.14Zm2.84-4.45,0,.23.23-.11.11-.06Zm-343,52.52-.19.07c.25,1.49.37,2.48.41,2.81C387,454.72,387,453.76,386.88,452.82ZM347.47,400.3l-.31.06.11.06a1.15,1.15,0,0,0,.25.12Zm67.85,8.2-6.86-11.7a3,3,0,0,1-.16-.31l-4.76-11.92a2.37,2.37,0,0,0-1.21-1.26l-4.58-2.08a2.37,2.37,0,0,1-1-.94l-5.42-9.14a2.35,2.35,0,0,0-2-1.14H368.71a2.34,2.34,0,0,0-1.52.56l-4.62,3.94-3.6,3.07a2.37,2.37,0,0,0-.81,2c.33,3.2,1.18,11.69,1.18,12.44a35.18,35.18,0,0,1-2,5.06,40.45,40.45,0,0,1,21.53-3.54c8.37.94,18.13,4.7,28.4,14-.74-.61-11.56-9.25-26-11.23a39.22,39.22,0,0,0-25.77,5.1l-.12.06c-.1.22-.19.42-.28.6,9.75,3.35,28.58,14.47,31.75,50.73a2.3,2.3,0,0,0,1.51-2.19v-.19a2.36,2.36,0,0,1,.56-1.53l9.5-11a2.08,2.08,0,0,0,.44-.76l5.1-14.76,1.69-4.9a2.31,2.31,0,0,1,1-1.26l7.75-4.49A2.35,2.35,0,0,0,415.32,408.5ZM351.07,405a1.48,1.48,0,0,1-.54.17c-39.76,5-50.77,59.57-51.42,63,7.9-54.29,36.28-65.5,48.05-67.82a64.73,64.73,0,0,0-15.25-6.15,59.11,59.11,0,0,0-17.54-1.82h0a66.31,66.31,0,0,0-22,4.93h0A67.3,67.3,0,0,0,277,406a69.23,69.23,0,0,1,17.53-11.74h0A56.6,56.6,0,0,1,317,389a60.66,60.66,0,0,1,17.39,2.17,65.28,65.28,0,0,1,12.16,4.66l-.1-.49c0-.11,0-.21-.05-.32l-.47-7a2.31,2.31,0,0,1,.55-1.69l8.26-9.63s3-2.66.83-9.18a20.45,20.45,0,0,0-1-2.38h0s0,0,0,0a36.24,36.24,0,0,0-3.38-5.66,2.46,2.46,0,0,0-.89-.74l-1.94-.94h0l-2.87-1.39-.88-.42A25.32,25.32,0,0,0,327.9,354l-1.26.29-23.95,5.46a2.4,2.4,0,0,0-.38.12h0a2.37,2.37,0,0,0-1.43,2.16V367a2.36,2.36,0,0,1-.71,1.68l-8.46,8.18a2.42,2.42,0,0,0-.55.82l-6.93,17.56a2.34,2.34,0,0,1-.56.83l-9.41,9a2.33,2.33,0,0,0,.27,3.6l7.29,5.15,8.68,6.12a2.34,2.34,0,0,1,1,1.63l.55,4.51L294,442a2.48,2.48,0,0,1,0,.72l-1.69,9.11a2.44,2.44,0,0,0,0,1l.82,3,3.42,12.66a2.34,2.34,0,0,0,4.4.33l3.16-7.21a2.4,2.4,0,0,1,.84-1l21.62-14.53a2.38,2.38,0,0,1,.84-.35l21-4.27a2.5,2.5,0,0,1,.47-.05,2.07,2.07,0,0,1,.35,0L371,444.78a2.53,2.53,0,0,1,.75.24l11.51,6.12a2.3,2.3,0,0,1,.86.78A2.28,2.28,0,0,0,386,453a2.57,2.57,0,0,0,.67-.09C385.07,443,377.82,411.41,351.07,405Zm-14.69-61.52.31.38.33-.33Zm50.5,109.3-.19.07c.25,1.49.37,2.48.41,2.81C387,454.72,387,453.76,386.88,452.82ZM347.47,400.3l-.31.06.11.06a1.15,1.15,0,0,0,.25.12Zm39.41,52.52-.19.07c.25,1.49.37,2.48.41,2.81C387,454.72,387,453.76,386.88,452.82ZM347.47,400.3l-.31.06.11.06a1.15,1.15,0,0,0,.25.12ZM954.25,627.18V610.85H982l-16-19,11.72-.69-16.86-18.79h9.28l-18.55-27-18.56,27h9.28L925.42,591.2l11.72.69-16,19h27.63v15.67c-17.37-2-40.21-3.82-67.56-5.45V599.69H917l-20.67-24.44,15.11-.89-21.74-24.22h12L877.7,515.25l-23.92,34.89h12L844,574.36l15.11.89-20.66,24.44h35.62v21c-13.3-.75-27.59-1.46-42.77-2.12a204.26,204.26,0,0,0,7.15-54.48c0-46.7-14.39-95.67-39.25-140.6l-3.82,2.69-2,15.9.83,4.5.64,3.46a12.43,12.43,0,0,1-.22,5.46l-4.24,15.69a11.73,11.73,0,0,1-.75,2c12.18,30.45,18.76,61.51,18.76,90.87a171.78,171.78,0,0,1-8.12,53.26,154.28,154.28,0,0,1-12.25,28.06q-2.25,4-4.75,7.9h36.82c101.61-4.13,166.67-10.49,166.67-17.61C986.82,632.66,975.25,629.8,954.25,627.18Zm134.63-402.74C1016,197.78,923.55,124,923.55,124l6.13-11.83L936,100,892,53.33,826.66,24l-3.53,6.55-5.8,10.78L758.66,0,661.33,145.33l78.67,48a398.47,398.47,0,0,1-18.19,36,613,613,0,0,1-43.15,65.12A286.24,286.24,0,0,0,613,263.65a31.76,31.76,0,0,1,.37,11.41c-.19,1.48-.45,2.91-.74,4.23-.08.39-.17.77-.26,1.15a36.34,36.34,0,0,1,5.66,1.1l3.81,1.06h0l1.06.3.05.13,1.72,4.66a61.17,61.17,0,0,1,3.1,13.55q6.3,2.78,12.55,5.93,10,5,19.76,11.06a310.27,310.27,0,0,1,53.8,42.21,45.8,45.8,0,0,1,4.14-6.86,12.23,12.23,0,0,1,4.65-3.91l1.1-.53,4.6-2.22a35.32,35.32,0,0,1,23.27-2.64l.16,0,.44-.52h0C778.82,312.14,801.34,284.59,814,269c6.94-8.55,10.9-13.48,10.9-13.48,72.89,58.67,110.52,152.6,110.52,152.6,68.45-28.15,121.78-107.26,121.78-107.26l-8.89-12.15,13.93,4.44C1087.7,255.55,1088.88,224.44,1088.88,224.44Zm-467,57.17,1.06.3.05.13Zm-156-1.34c-1.19.08-2.37.22-3.51.41h0a33,33,0,0,0-3.93.86l-4.91,1.37-.45,1.2h0l-1.33,3.58a60.75,60.75,0,0,0-3.18,14.45c-3.39,1.49-6.79,3.07-10.17,4.74q-6.58,3.24-13.1,6.91a313.29,313.29,0,0,0-62,46.17,47.72,47.72,0,0,0-3.9-6.38,12.34,12.34,0,0,0-4.66-3.91l-1.59-.77-4.11-2A35.39,35.39,0,0,0,337,343.57l-.64-.05c-30.13-35.92-55-66.51-66.14-80.23L264,255.55c-72.89,58.67-110.52,152.6-110.52,152.6C85,380,31.7,300.89,31.7,300.89l-5-7.71C1.18,255.55,0,224.44,0,224.44,72.89,197.78,165.33,124,165.33,124l-7.13-13.76L152.89,100l44-46.67L262.22,24l4.58,8.51,4.75,8.82L330.22,0l97.33,145.33-78.67,48c4.31,9.81,9.21,19.67,14.57,29.5a589.27,589.27,0,0,0,43.31,67,291.34,291.34,0,0,1,58.43-26,31.82,31.82,0,0,0-.33,11.23c.2,1.57.48,3.08.79,4.47C465.7,279.78,465.76,280,465.82,280.27Z" /></svg>