<svg xmlns="http://www.w3.org/2000/svg" viewBox="0 0 1088.88 408.15" fill="currentColor"><path d="M202.26,212.79l-10.08.65v-2.26l10.09-.36ZM255.92,173l-.16,34-.06,13.62q3.84,3.18,7.72,6.35l8.84,7.21L264,242c-2.81,2.64-5.62,5.31-8.39,8l-.05,10.41c.8-.67,1.61-1.33,2.42-2L281.6,248q4.75-8.2,9.6-16.37c-11.59-18.64-22.94-37.48-33.81-56.09Zm104.2,40.56.09,0,0-.06S360.13,213.54,360.12,213.57ZM330.22-2,271.55,39.33,262.22,22,196.89,51.33,152.89,98l12.44,24S72.89,195.78,0,222.44c0,0,1.18,31.11,26.66,68.74l13.93-4.44L31.7,298.89S85,378,153.48,406.15c0,0,15.55-43.91,50-90.39l-1.62.25,0-11.69.06-17.67.09-24.25-10,1,0,9.22L192,309.2l0,8.44-8.32,1.4c-11,1.85-22.09,3.81-33,5.84l-11.83,2.19V315l0-22.13,0-34.21c-2.59-2.31-5.18-4.64-7.74-7l-7.4-6.72,6.73-7.4c2.78-3.06,5.6-6.13,8.43-9.18l0-37.49,0-20.72v-10H256v.27h57.1l2.91,4.83c2.57,4.24,5.18,8.53,7.82,12.83,2.7-4.32,5.44-8.67,8.18-13l2.95-4.65h64.52l28.09-17.14Zm479,262.23,0-9.51c-1.63-1.58-3.28-3.16-4.93-4.73-1.6,1.3-3.23,2.6-4.86,3.9l.18,36.41,9.72-11.81c0-.2,0-.41,0-.61Zm279.65-35.79C1016,197.78,923.55,124,923.55,124L936,100,892,53.33,826.66,24l-9.33,17.33L758.66,0,661.33,145.33l24.81,15.14h35.15l3,4.47c7.48,11.27,14.68,22.3,21.69,33.24l-.15-27.65-.06-10.06H799l0,9.94.08,17.44.17,34.07,4.47,4.11,5.33-4.39-.1-23.85c-.05-12.06,3.69-21.5,11.14-28.06,7-6.2,17.13-9.41,30-9.53h32.1c12.67,0,22.69,3.39,29.79,10s11.11,16.39,11.54,28.79v31.09l-10.63-.67c-11.19-.71-22.56-1.4-33.79-2l-9.4-.55,0-9.42v-5.62l-6.8-.26v3.87l0,12.56,8.54.7c14.28,1.19,28.74,2.46,43,3.79l9.07.84v53c0,22.87-11.81,36-32.37,36-1.49,0-3-.07-4.65-.22,32.35,44.9,48.87,86.13,48.87,86.13,68.45-28.15,121.78-107.26,121.78-107.26l-8.89-12.15,13.93,4.44C1087.7,255.55,1088.88,224.44,1088.88,224.44ZM250.31,303.5v.38l-.23,0Zm6.79-68.82q-5.76,5.41-11.52,11,0,11.7-.11,23.39-.06,15.24-.14,30.47-16.47,2.26-32.93,4.78l-.47.07q.09-26.49.19-53-15,1.44-30,3Q182,281.8,182,309.18,165.35,312,148.77,315q0-30.41,0-60.83-5.51-4.87-11-9.88,5.5-6.06,11-12,0-31.08,0-62.15h97.06q-.12,27.51-.25,55Q251.4,230,257.1,234.68Zm-44.79-34.22q-15.06.53-30.1,1.09l-.06,22.59q15-1,30.08-2Q212.26,211.32,212.31,200.46Zm38,103v.38l-.23,0ZM352,217.13q2.73-4.38,5.48-8.73,11.71-18.6,23.42-36.6l.86-1.33H340.44q-8.31,13.16-16.65,26.66-8.18-13.15-16.35-26.66H266q18.45,31.59,36.87,61-2.86,4.8-5.72,9.67-15.92,27-31.79,55.71,20.67-2.62,41.38-4.82,8.33-14.4,16.66-28.35,8.19,12.71,16.38,25.1,20.67-1.86,41.39-3.31-18.46-27.45-36.87-56Q348.16,223.26,352,217.13Zm8.22-3.6-.09,0s0-.06.06-.1Zm-109.9,90v.38l-.23,0ZM536.87,232v-7.59H525.68q-16,0-31.95.12l0,24.21,9.15-.09v2.54c-.08,3-2.44,4.49-7.11,4.54l-12.65.17h-.32q-7.08,0-6.86-5.22l.09-50q-.19-5.26,7.2-5.3l12.62,0h.07c4.6,0,6.94,1.49,7,4.45v7.47q11.39,0,22.78-.05l11.19,0V192.08q-1.05-21.71-31.38-21.85h-32q-31.37.12-31.44,23.5,0,12.2-.08,24.37-5.66,4.4-11.32,8.84,5.64,4.19,11.27,8.34,0,11.68-.07,23.36c-.05,15.14,9.8,22.49,29.56,22.49l1.85,0q16.07-.42,32.12-.57c21-.29,31.51-7.87,31.5-23.22Q536.88,244.65,536.87,232Zm136.46-3.6-1.54,1.17-.27-.22,1.55-1.17Zm0,0-1.54,1.17-.27-.22,1.55-1.17Zm-8.08-.16-1.55,1.17-4.1,3.1-5.81,4.36q.11,23.79.22,47.57-16.82-1-33.63-1.81-.09-22.2-.16-44.39-15.11-.37-30.21-.63.06,21.93.11,43.86-16.77-.52-33.55-.78l-.06-46.4q-4.82-3.65-9.64-7.28l-1.47-1.11,1.47-1.09,9.62-7.16-.06-47.4H653.5l.21,48.61q3.64,2.92,7.27,5.9l4,3.25Zm-45.12-14.47-.06-18.19q-15.08-.17-30.16-.26,0,9,0,18.08Q605,213.53,620.13,213.75Zm180.06,22.67-4.27-4q-3.31-3.06-6.63-6.08-.15-27.94-.28-55.89H755.8q.13,24.87.27,49.75,0,6.45.07,12.89-15.6-25.2-31.2-49h0q-4.5-6.87-9-13.65H682.51q.13,25.18.26,50.36l-5.59,4.24-4.11,3.09.26.22-1.54,1.17c1.32,1.08,2.65,2.16,4,3.26q3.56,2.91,7.1,5.86l.24,47.77q16.64,1.26,33.27,2.8-.18-31-.34-62.12c13.75,21.31,27.51,43.35,41.25,66.32q16.2,1.83,32.36,3.9-.06-10.54-.1-21.08h0q-.09-15.57-.16-31.16,3.78-3,7.57-6.06Zm-127.12-8.26-1.55,1.17.27.22,1.54-1.17Zm186.39-26.77H860l12.59.47q7,.27,7.07,6,0,4.77,0,9.53,16.93,1,33.84,2.06V199.34q-1-29.07-31.36-29.11h-32q-31.38.3-31.25,27.55l.12,28.55q-4,3.33-8,6.61l-3.24,2.67c1.41,1.33,2.81,2.67,4.22,4q3.54,3.38,7.08,6.83,0,8,.07,15.94c0,3.81,0,7.62,0,11.43.07,18.19,10.54,28.78,31.35,32.27q13.71,2.19,27.4,4.55h0l4.38.76a51.19,51.19,0,0,0,8.75.82c14.92,0,22.36-8.56,22.37-26V242.39q-21.43-2-42.89-3.78,0,15.25.07,30.5l9.08,1.1c0,1.08,0,2.16,0,3.24-.06,3.27-1.8,4.89-5.23,4.89a14.81,14.81,0,0,1-1.8-.12q-6.27-.83-12.55-1.62-7.35-.94-7.16-7.46-.11-30.76-.2-61.54Q852.67,201.39,859.46,201.39Z" /></svg>